<svg xmlns="http://www.w3.org/2000/svg" style="position:absolute; width: 0; height: 0"><symbol viewBox="0 0 32 32" id="bubble"><path d="M16 2c8.837 0 16 5.82 16 13s-7.163 13-16 13c-.85 0-1.682-.054-2.495-.158C10.068 31.28 5.965 31.895 2 31.986v-.84c2.142-1.05 4-2.962 4-5.146 0-.305-.024-.604-.068-.897C2.312 22.72 0 19.08 0 15 0 7.82 7.163 2 16 2z"></path></symbol><symbol viewBox="0 0 32 32" id="dots"><path d="M6.875 13.325a3.094 3.094 0 1 0 0 6.187 3.094 3.094 0 0 0 0-6.187zm9.22 0a3.094 3.094 0 1 0-.002 6.187 3.094 3.094 0 0 0 0-6.187zm9.218 0a3.094 3.094 0 1 0 0 6.187 3.094 3.094 0 0 0 0-6.187z"></path></symbol><symbol viewBox="0 0 32 32" id="glass"><path d="M19 12c-1 1-1 1-1 2v14h4a2 2 0 0 1 2 2H8a2 2 0 0 1 2-2h4V14c0-1 0-1-1-2L4.414 3.414C3.636 2.636 3.9 2 5 2h22c1.1 0 1.364.636.586 1.414L19 12z"></path></symbol><symbol viewBox="0 0 20 20" id="heart"><path d="M17.19 4.15c-1.673-1.534-4.384-1.534-6.056 0L10 5.194 8.865 4.15c-1.672-1.534-4.382-1.534-6.054 0-1.88 1.727-1.88 4.525 0 6.252L10 17l7.19-6.598c1.88-1.727 1.88-4.525 0-6.25z"></path></symbol><symbol viewBox="0 0 20 20" id="reply"><path d="M19 16.8S17 7.067 8.225 7.067V3.2L1 9.655l7.225 6.69V11.99c4.763 0 8.292.422 10.775 4.812z"></path></symbol><symbol viewBox="0 0 20 20" id="retweet"><path d="M4.98 13.2V7.98H7L3.5 4 0 7.98h2.02V14a2 2 0 0 0 2 2H13l-2.562-2.8H4.98zm13-1.18V6a2 2 0 0 0-2-2H7l2.56 2.8h5.46v5.22H13L16.5 16l3.5-3.98h-2.02z"></path></symbol><symbol viewBox="0 0 32 32" id="twitter"><path d="M32 6.076a13.14 13.14 0 0 1-3.77 1.034 6.592 6.592 0 0 0 2.886-3.632 13.15 13.15 0 0 1-4.17 1.593A6.557 6.557 0 0 0 22.156 3a6.565 6.565 0 0 0-6.565 6.565c0 .515.06 1.016.17 1.496A18.64 18.64 0 0 1 2.23 4.2a6.536 6.536 0 0 0-.89 3.3 6.563 6.563 0 0 0 2.922 5.465 6.54 6.54 0 0 1-2.974-.82v.082a6.568 6.568 0 0 0 5.265 6.437 6.578 6.578 0 0 1-2.963.112 6.57 6.57 0 0 0 6.133 4.56 13.172 13.172 0 0 1-8.155 2.81c-.53 0-1.052-.032-1.566-.093a18.58 18.58 0 0 0 10.062 2.95c12.076 0 18.68-10.004 18.68-18.68 0-.285-.007-.568-.02-.85A13.347 13.347 0 0 0 32 6.077z"></path></symbol></svg>