<svg xmlns="http://www.w3.org/2000/svg" style="position:absolute; width: 0; height: 0"><symbol viewbox="0 0 32 32" id="icon-banknote"><path d="M31.415 10.586l-10-10a2.002 2.002 0 0 0-3.326.822c-.455 1.47-1.238 2.746-2.397 3.904-1.548 1.547-3.564 2.72-5.697 3.958-2.264 1.312-4.603 2.672-6.52 4.588-1.63 1.63-2.738 3.445-3.388 5.55a2 2 0 0 0 .495 2.007l10 10a2.002 2.002 0 0 0 3.326-.824c.454-1.467 1.237-2.744 2.397-3.902 1.547-1.547 3.562-2.717 5.697-3.955 2.262-1.314 4.602-2.674 6.518-4.59 1.63-1.63 2.738-3.445 3.39-5.55a2.004 2.004 0 0 0-.498-2.006zM12 30c-3.312-3.312-6.688-6.69-10-10 2.842-9.2 15.16-8.8 18-18l10.002 10C27.16 21.2 14.842 20.8 12 30zm7.562-15.1c-.326-.273-.654-.46-.984-.55a2.864 2.864 0 0 0-.988-.106 3.54 3.54 0 0 0-1 .23c-.336.13-.674.272-1.014.437a56.818 56.818 0 0 0-1.61-1.79c.24-.22.476-.33.702-.34.227-.01.445.015.652.067.21.053.404.098.582.133a.538.538 0 0 0 .473-.12.664.664 0 0 0 .236-.482c.01-.197-.062-.39-.227-.576a1.293 1.293 0 0 0-.77-.443c-.3-.055-.61-.05-.93.02-.316.07-.617.19-.902.36s-.513.34-.683.506l-.195-.184a.376.376 0 0 0-.27-.1.35.35 0 0 0-.272.133.36.36 0 0 0-.092.285.36.36 0 0 0 .127.253l.195.166a4.58 4.58 0 0 0-.633 1.01c-.168.36-.268.717-.305 1.064-.04.35-.002.67.105.967.107.3.305.554.594.794.47.39 1.025.557 1.668.52.64-.04 1.332-.23 2.075-.63.59.683 1.182 1.36 1.773 1.99-.25.21-.47.33-.662.37-.193.04-.365.037-.52-.01a1.683 1.683 0 0 1-.435-.21 3.048 3.048 0 0 0-.396-.233c-.13-.063-.262-.1-.398-.1s-.28.063-.44.2c-.165.143-.247.31-.247.496s.085.375.253.566c.17.19.39.352.658.48s.57.206.9.228a2.5 2.5 0 0 0 1.053-.163c.37-.135.738-.38 1.1-.742.174.17.35.332.525.488a.36.36 0 0 0 .273.088.363.363 0 0 0 .27-.14.386.386 0 0 0 .095-.292.34.34 0 0 0-.125-.244 13.1 13.1 0 0 1-.528-.445c.3-.368.54-.755.717-1.138.176-.384.28-.755.316-1.1a1.965 1.965 0 0 0-.12-.94c-.11-.287-.31-.533-.595-.77zm-5.59.678a.97.97 0 0 1-.747-.29.733.733 0 0 1-.195-.323 1.004 1.004 0 0 1-.04-.418c.015-.15.06-.307.138-.465.074-.158.184-.316.324-.47a35.667 35.667 0 0 1 1.52 1.63c-.384.21-.718.324-1 .336zm4.716 2.002c-.09.166-.193.314-.314.443a40.863 40.863 0 0 1-1.68-1.826c.143-.064.293-.13.455-.2s.322-.112.484-.14c.166-.025.33-.018.494.02.16.042.315.13.458.27.14.14.23.286.266.444.04.16.04.324.014.49-.03.167-.088.333-.18.5zm-3.97 4.6a.5.5 0 0 1 .667.742c-.016.016-.033.027-.05.04v.003a15.86 15.86 0 0 0-1.713 1.475 13.57 13.57 0 0 0-1.36 1.58l-.64.875a.47.47 0 0 1-.074.1.504.504 0 0 1-.71 0 .503.503 0 0 1-.066-.627l-.002-.002.684-.934a14.79 14.79 0 0 1 1.46-1.7 17.95 17.95 0 0 1 1.8-1.552h.003zm3.66-14.465c.506-.506.963-1.037 1.36-1.58l.664-.91a.504.504 0 1 1 .826.56l.002.003-.684.938a14.693 14.693 0 0 1-1.46 1.697 18.2 18.2 0 0 1-1.8 1.553l-.004-.002a.504.504 0 0 1-.7-.014.506.506 0 0 1 .118-.802c.588-.45 1.155-.92 1.678-1.443z"></path></symbol><symbol viewbox="0 0 32 32" id="icon-bubble"><path d="M16 7a.5.5 0 0 1 0 1c-5.327 0-10 2.804-10 6a.5.5 0 0 1-1 0c0-3.794 5.037-7 11-7zm0-5C7.163 2 0 7.373 0 14c0 4.127 2.78 7.766 7.008 9.926 0 .027-.008.045-.008.074 0 1.793-1.34 3.723-1.928 4.736h.002A.906.906 0 0 0 5.906 30c.094 0 .26-.025.255-.014 3.127-.512 6.07-3.383 6.755-4.215 1 .15 2.03.23 3.086.23 8.836 0 16-5.372 16-12S24.837 2 16 2zm0 22c-.917 0-1.858-.07-2.796-.207a2 2 0 0 0-1.836.71c-.428.52-1.646 1.683-3.085 2.538.39-.893.695-1.896.716-2.93a2 2 0 0 0-1.08-1.964C4.21 20.25 1.997 17.206 1.997 14 2 8.486 8.28 4 16 4c7.718 0 14 4.486 14 10s-6.28 10-14 10z"></path></symbol><symbol viewbox="0 0 32 32" id="icon-bulb"><path d="M16 0C9.924 0 5 4.924 5 11c0 4.03 3.688 8.303 5.03 12.055C12.035 28.65 11.813 32 16 32c4.25 0 3.965-3.334 5.97-8.922C23.315 19.318 27 15 27 11c0-6.076-4.926-11-11-11zm2.592 27.176l-4.958.62a43.56 43.56 0 0 1-.598-1.894l-.01-.03 6.19-.774c-.09.295-.183.605-.265.883-.13.45-.246.84-.357 1.197zm-5.856-2.268A60 60 0 0 0 12.12 23h7.767c-.123.36-.246.72-.352 1.06l-6.8.848zM16 30c-1.013 0-1.48-.117-1.997-1.25l4.238-.53C17.63 29.872 17.18 30 16 30zm4.672-9H11.34c-.5-1.08-1.097-2.16-1.687-3.217C8.348 15.448 7 13.033 7 11c0-4.963 4.037-9 9-9s9 4.037 9 9c0 2.018-1.35 4.446-2.656 6.795-.584 1.053-1.178 2.13-1.672 3.205zM16 5a.5.5 0 0 1 0 1c-2.757 0-5 2.243-5 5a.5.5 0 0 1-1 0c0-3.31 2.69-6 6-6z"></path></symbol><symbol viewbox="0 0 32 32" id="icon-calendar"><path d="M29.334 3H25V1a1 1 0 0 0-2 0v2h-6V1a1 1 0 0 0-2 0v2H9V1a1 1 0 0 0-2 0v2H2.667A2.666 2.666 0 0 0 0 5.666v23.667A2.667 2.667 0 0 0 2.667 32h26.667A2.666 2.666 0 0 0 32 29.333V5.666A2.665 2.665 0 0 0 29.334 3zM30 29.333c0 .368-.3.667-.666.667H2.667A.667.667 0 0 1 2 29.333V5.666C2 5.3 2.3 5 2.667 5H7v2a1 1 0 0 0 2 0V5h6v2a1 1 0 0 0 2 0V5h6v2a1 1 0 0 0 2 0V5h4.334c.367 0 .666.3.666.666v23.667zM7 12h4v3H7zm0 5h4v3H7zm0 5h4v3H7zm7 0h4v3h-4zm0-5h4v3h-4zm0-5h4v3h-4zm7 10h4v3h-4zm0-5h4v3h-4zm0-5h4v3h-4z"></path></symbol><symbol viewbox="0 0 32 32" id="icon-camera"><path d="M16 10a8 8 0 0 0-8 8 8 8 0 0 0 16 0 8 8 0 0 0-8-8zm4.555 11.906a5.998 5.998 0 0 1-8.46.65 5.997 5.997 0 0 1-.65-8.46 6 6 0 1 1 9.11 7.81zM16 14a.5.5 0 0 1 0 1 3 3 0 0 0-3 3v.002a.5.5 0 0 1-1 0V18a4 4 0 0 1 4-4zm13.492-4.958l-4.334-.723-1.373-3.436A2.988 2.988 0 0 0 21 3H11a2.99 2.99 0 0 0-2.786 1.886L6.842 8.32l-4.332.72A2.99 2.99 0 0 0 0 12v15c0 1.654 1.346 3 3 3h26c1.654 0 3-1.346 3-3V12a2.99 2.99 0 0 0-2.508-2.958zM30 27a1 1 0 0 1-1 1H3a1 1 0 0 1-1-1V12a1 1 0 0 1 .836-.986l5.444-.907 1.79-4.478c.154-.38.52-.63.93-.63h10a1 1 0 0 1 .928.63l1.79 4.476 5.446.907A1 1 0 0 1 30 12v15z"></path></symbol><symbol viewbox="0 0 32 32" id="icon-clip"><path d="M29.363 4.637a8.997 8.997 0 0 1 0 12.727L18.396 28.332a.997.997 0 0 1-1.414 0 .995.995 0 0 1 0-1.414L27.808 16.09a6.997 6.997 0 0 0-.002-9.898 6.998 6.998 0 0 0-9.898 0L3.46 20.47a4.998 4.998 0 0 0 0 7.07 4.998 4.998 0 0 0 7.07 0l14.59-14.42a3 3 0 0 0-4.24-4.243L9.91 19.847a1 1 0 0 1-1.414-1.415L19.464 7.465a5 5 0 1 1 7.07 7.07l-14.59 14.42c-2.728 2.728-7.17 2.728-9.898 0s-2.73-7.172 0-9.9l14.59-14.418a8.997 8.997 0 0 1 12.727 0z"></path></symbol><symbol viewbox="0 0 32 32" id="icon-clock"><path d="M15 10a1 1 0 1 1 2 0 1 1 0 0 1-2 0zm0 12a1 1 0 1 1 2 0 1 1 0 0 1-2 0zm-6-6a1 1 0 1 1 2 0 1 1 0 0 1-2 0zm12 0a1 1 0 1 1 2 0 1 1 0 0 1-2 0zm-10.243 4.242a1 1 0 1 1 2 0 1 1 0 0 1-2 0zm0-8.485a1 1 0 1 1 2 0 1 1 0 0 1-2 0zm8.485 8.485a1 1 0 1 1 2 0 1 1 0 0 1-2 0zM26 14c-.07 0-.13.033-.197.04-.348-1.745-1.17-3.306-2.297-4.594L22.07 1.634A1.998 1.998 0 0 0 20.104 0h-8c-.964 0-1.79.688-1.967 1.635l-1.4 7.55C7.057 10.97 6 13.35 6 16c0 2.583 1.014 4.905 2.62 6.678l1.413 7.688A2 2 0 0 0 12 32h8c.963 0 1.79-.688 1.967-1.635l1.424-7.682c1.19-1.31 2.055-2.92 2.414-4.725.068.01.127.042.197.042a2 2 0 0 0 0-4zM12.104 2h8l1 5.387c-1.477-.86-3.168-1.387-5-1.387-1.83 0-3.523.528-5 1.387l1-5.387zM20 30h-8l-1-5.387C12.476 25.47 14.168 26 16 26c1.83 0 3.524-.53 5-1.387L20 30zm-4-6c-4.41 0-8-3.59-8-8s3.59-8 8-8 8 3.59 8 8-3.59 8-8 8zm4.94-12.974a.34.34 0 0 1 .03.45l-2.427 3.02-1.848 2.225a1.03 1.03 0 0 1-.7.28c-.268-.003-.52-.107-.706-.293s-.29-.435-.29-.698c0-.273.104-.527.295-.72l5.192-4.284a.34.34 0 0 1 .453.02z"></path></symbol><symbol viewbox="0 0 32 32" id="icon-cloud"><path d="M25.914 13.143C25.477 8.58 21.678 5 17 5c-3.62 0-6.717 2.148-8.146 5.23A4.46 4.46 0 0 0 7.5 10 4.5 4.5 0 0 0 3 14.5c0 .494.1.96.247 1.404C1.314 17.03 0 19.1 0 21.498a6.5 6.5 0 0 0 6.5 6.5V28l18-.002a7.5 7.5 0 0 0 7.5-7.5c0-3.656-2.62-6.693-6.086-7.355zM24.5 25.998V26h-18A4.508 4.508 0 0 1 2 21.498c0-1.6.844-3.045 2.255-3.867 1.37-.785 1.465-.94.89-2.355A2.455 2.455 0 0 1 5 14.5C5 13.123 6.123 12 7.5 12c0 0 .657-.046 1.354.23 1.147.458 1.272.02 1.814-1.158C11.815 8.6 14.3 7 17 7c3.6 0 6.576 2.723 6.924 6.334.123 1.432.123 1.432 1.615 1.773a5.496 5.496 0 0 1 4.46 5.39c0 3.034-2.468 5.5-5.5 5.5z"></path></symbol><symbol viewbox="0 0 32 32" id="icon-cup"><path d="M28.11 5.022l-1.214-3.655A1.996 1.996 0 0 0 25 0H7a2 2 0 0 0-1.898 1.367L3.877 5.024A1.988 1.988 0 0 0 2 7v3a2 2 0 0 0 2 2h1.034c0 .075-.03.146-.02.22l2 18A2 2 0 0 0 9 32h14c1.02 0 1.875-.768 1.986-1.78l2-18c.01-.074-.02-.145-.02-.22H28a2 2 0 0 0 2-2V7c0-1.065-.84-1.917-1.89-1.978zM7 2h18l1 3H6l1-3zm2 28l-.333-3h14.666L23 30H9zm14.443-4H8.555l-1.11-10h17.11l-1.112 10zm1.223-11H7.333L7 12h18l-.334 3zM28 10H4V7h24v3z"></path></symbol><symbol viewbox="0 0 32 32" id="icon-data"><path d="M16 0C9.256 0 2 2.033 2 6.5v19C2 29.965 9.256 32 16 32s14-2.035 14-6.5v-19C30 2.033 22.742 0 16 0zm12 25.5c0 2.484-5.373 4.5-12 4.5-6.628 0-12-2.016-12-4.5v-3.736C6.066 23.894 11.05 25 16 25s9.934-1.107 12-3.236V25.5zm0-6h-.004c0 .01.004.02.004.03C28 22 22.627 24 16 24S4 22 4 19.53c0-.01.004-.02.004-.03H4v-3.736C6.066 17.894 11.05 19 16 19s9.934-1.107 12-3.236V19.5zm0-6h-.004c0 .01.004.02.004.03C28 16 22.627 18 16 18S4 16 4 13.53c0-.01.004-.02.004-.03H4v-3.436C6.62 12.06 11.425 13 16 13s9.38-.94 12-2.936V13.5zM16 11C9.372 11 4 8.984 4 6.5 4 4.014 9.372 2 16 2c6.627 0 12 2.014 12 4.5 0 2.484-5.373 4.5-12 4.5zm8 15a1 1 0 1 1 2 0 1 1 0 0 1-2 0zm0-6a1 1 0 1 1 2 0 1 1 0 0 1-2 0zm0-6a1 1 0 1 1 2 0 1 1 0 0 1-2 0z"></path></symbol><symbol viewbox="0 0 32 32" id="icon-diamond"><path d="M31.414 9.677l-5.08-5.08a2.002 2.002 0 0 0-1.414-.587H7.08a2 2 0 0 0-1.413.586l-5.08 5.08a1.998 1.998 0 0 0-.08 2.744l13.998 14.908a2 2 0 0 0 2.99 0l14-14.908a2 2 0 0 0-.08-2.743zM18.22 11.01h-4.44L16 9.16l2.22 1.85zm-1.438-2.5l2.732-2.278 2.018 2.018L19 10.36l-2.218-1.85zM13 10.36l-2.532-2.11 2.018-2.018L15.22 8.51 13 10.36zm5.49 1.65L16 24.463 13.51 12.01h4.98zm1.02 0h4.906l-7.36 12.27 2.454-12.27zm.27-1l2.462-2.05 2.05 2.05H19.78zm.927-5h3.512L22.3 7.607 20.706 6.01zM16 7.86l-2.22-1.85h4.438L16 7.86zm-6.304-.253L7.78 6.01h3.513L9.696 7.607zm.062 1.352l2.462 2.05H7.707l2.05-2.05zm2.732 3.05l2.453 12.27-7.36-12.27h4.907zm.214 10.477L2.864 12.01h3.554l6.286 10.478zM25.582 12.01h3.555l-9.842 10.48 6.287-10.48zm.125-1l-2.693-2.693 2.297-1.915 4.61 4.608h-4.21zM6.687 6.4l2.3 1.917-2.694 2.693H2.006l4.68-4.61z"></path></symbol><symbol viewbox="0 0 32 32" id="icon-display"><path d="M27 4.996L5 5c-.553 0-1 .443-1 .996v14a1 1 0 0 0 1 1h22a1 1 0 0 0 1-1v-14a1 1 0 0 0-1-1zM27 20H5V5.996h22V20zm2-19H3a3 3 0 0 0-3 3v20a2.997 2.997 0 0 0 2.99 2.998H13v1.217l-6.242.81A1 1 0 0 0 7 30.995h18a1 1 0 0 0 .242-1.97L19 28.216v-1.217h10.01A2.997 2.997 0 0 0 32 24V4a3 3 0 0 0-3-3zm1 23c0 .55-.45 1-1 1H3a1 1 0 0 1-1-1V4a1 1 0 0 1 1-1h26a1 1 0 0 1 1 1v20z"></path></symbol><symbol viewbox="0 0 32 32" id="icon-eye"><path d="M31.965 15.776c-.01-.042-.004-.087-.02-.128-.006-.017-.02-.026-.027-.042-.01-.024-.008-.05-.02-.074-2.9-5.55-9.214-9.528-15.874-9.528S3.05 9.974.15 15.524c-.014.024-.012.05-.022.075-.007.014-.02.023-.027.04-.014.04-.01.086-.02.13-.016.073-.033.145-.033.222s.018.148.035.224c.01.042.005.087.02.128.007.017.022.026.028.042.01.024.008.05.02.074 2.902 5.552 9.215 9.53 15.876 9.53 6.66 0 12.973-3.972 15.873-9.522.013-.023.01-.05.02-.074.006-.016.02-.025.027-.042.016-.04.01-.086.02-.128.017-.076.035-.148.035-.224s-.018-.15-.035-.224zm-15.942 8.212c-5.615 0-11.112-3.19-13.85-7.995 2.753-4.81 8.242-7.99 13.85-7.99 5.613 0 11.11 3.192 13.85 7.995-2.754 4.81-8.242 7.99-13.85 7.99zm0-11.99a.5.5 0 0 1 0 1 3.002 3.002 0 0 0-2.998 2.998.5.5 0 0 1-1 0A3.998 3.998 0 0 1 16.018 12h.006zM16 9a7 7 0 1 0 0 14 7 7 0 0 0 0-14zm0 13c-3.31 0-6-2.69-6-6s2.69-6 6-6 6 2.69 6 6-2.69 6-6 6z"></path></symbol><symbol viewbox="0 0 32 32" id="icon-fire"><path d="M22 9c-.062 2.675-2.07 4.934-2.07 4.934C19.93 8.958 16 5 16 5s-.053 2.962-2.043 5.948C11.967 3.98 5.995 0 5.995 0 8.98 10.948 5 14.93 5 22.892 5 27.562 8.954 32 15 32c8.957 0 10.69-3.288 11.615-6.993C27.89 19.907 25.98 13.977 22 9zm2.676 15.52C24.033 27.09 23.306 30 15 30c-5.008 0-8-3.614-8-7.108 0-2.676.488-4.873 1.004-7.2.656-2.948 1.328-5.967 1.037-9.96 3.086 4.27 4.184 9.925 4.184 9.925s2.87-4.03 3.643-5.903C17.457 10.957 18 15 18 19c0 0 2.656-2.188 4.648-5.478 2.098 3.762 2.854 7.695 2.028 11zm-2.244-7.725l.186 1.035c.416 2.318.183 5.058-.592 6.982a.5.5 0 0 1-.65.277.5.5 0 0 1-.278-.65c.584-1.45.83-3.49.674-5.355-1.004 1.122-2.27 2.29-4.972 3.575l-.506.24-.182-.528c-.362-1.05-.727-2.11-.885-3.59a43.726 43.726 0 0 1-1.865 2.743l-.508.692-.352-.784c-.86-1.925-1.517-3.428-2.037-4.75-.48 1.545-.84 3.332-.84 6.94a.5.5 0 0 1-1 0c0-4.708.625-6.522 1.285-8.443l.52-1.51.48 1.35c.514 1.45 1.192 3.05 2.15 5.212.633-.893 1.057-1.565 1.57-2.376l1.517-2.378v1.71c0 1.923.346 3.18.727 4.322 2.66-1.338 3.655-2.502 4.708-3.73l.85-.985z"></path></symbol><symbol viewbox="0 0 32 32" id="icon-food"><path d="M29.5 21h-2.69c-.046-.24-.1-.473-.16-.706l4.798-2.4a1 1 0 0 0-.895-1.788l-4.578 2.288C24.23 14.626 20.42 12 16 12c-5.382 0-9.865 3.888-10.81 9H2.5C1.122 21 0 22.12 0 23.5c0 .49.18.963.505 1.33L4 28.76v.74C4 30.88 5.122 32 6.5 32h19a2.5 2.5 0 0 0 2.5-2.5v-.74l3.494-3.93c.326-.367.506-.84.506-1.33a2.5 2.5 0 0 0-2.5-2.5zm-3.7 0h-.563l.498-.25c.02.084.046.165.064.25zM16 13c4.03 0 7.5 2.4 9.082 5.84l-.89.446C22.774 16.17 19.644 14 16 14c-4.282 0-7.86 2.993-8.77 7H6.202c.93-4.56 4.97-8 9.798-8zm4.576 8c-.773-1.763-2.53-3-4.576-3s-3.802 1.237-4.576 3H10.35c.826-2.326 3.043-4 5.65-4a6.006 6.006 0 0 1 5.508 3.627l-.932.373zM16 20c-.883 0-1.67.39-2.22 1h-1.224c.694-1.19 1.97-2 3.444-2 1.473 0 2.75.81 3.443 2h-1.225c-.548-.61-1.335-1-2.218-1zm0-4c-3.165 0-5.842 2.112-6.705 5H8.263c.892-3.444 4.017-6 7.737-6 3.246 0 6.043 1.948 7.295 4.734l-.893.446C21.314 17.723 18.855 16 16 16zm10 12v1.5a.5.5 0 0 1-.5.5h-19a.5.5 0 0 1-.5-.5V28l-4-4.5a.5.5 0 0 1 .5-.5h27a.5.5 0 0 1 .5.5L26 28zM7.977 11.712l-.018-.042c-.52-1.253-.005-2.482.46-3.59.44-1.053.833-1.985.43-2.894l-.006-.012-.003-.01V5.16a.49.49 0 0 1 .915-.346c.556 1.27.05 2.52-.424 3.646-.437 1.042-.793 2.01-.42 2.892a.034.034 0 0 1 0 .02c.013.04.02.082.02.125a.503.503 0 0 1-.5.503.498.498 0 0 1-.443-.27h-.002l-.008-.018zm12.177-.146l-.016-.04c-.52-1.253-.004-2.483.46-3.592.443-1.052.833-1.984.43-2.893l-.005-.01-.004-.01v-.005a.498.498 0 0 1-.035-.17.49.49 0 0 1 .947-.176c.558 1.27.05 2.52-.422 3.646-.437 1.042-.792 2.01-.42 2.892a.024.024 0 0 1 .003.02c.01.04.018.082.018.125a.5.5 0 0 1-.946.232c-.003-.006-.005-.012-.01-.018zM15.02 7.212l-.02-.04c-.52-1.254-.004-2.484.462-3.593.44-1.054.832-1.986.428-2.895 0-.004-.003-.008-.004-.012l-.003-.01V.66a.49.49 0 0 1 .915-.345c.557 1.27.05 2.52-.423 3.646-.438 1.044-.794 2.01-.42 2.894a.034.034 0 0 1 0 .02c.012.04.02.082.02.125a.5.5 0 0 1-.945.23h-.003l-.008-.017z"></path></symbol><symbol viewbox="0 0 32 32" id="icon-heart"><path d="M29.193 5.265c-3.63-3.596-9.432-3.67-13.19-.288-3.76-3.383-9.562-3.308-13.193.288a9.42 9.42 0 0 0 0 13.415l11.053 10.94a3.042 3.042 0 0 0 4.278 0l11.055-10.94a9.418 9.418 0 0 0 0-13.415zm-1.425 12.003l-11.053 10.94a1.01 1.01 0 0 1-1.425 0L4.237 17.27a7.443 7.443 0 0 1 0-10.59c2.844-2.816 7.416-2.915 10.41-.223L16 7.675l1.355-1.22c2.994-2.692 7.566-2.594 10.41.222a7.444 7.444 0 0 1 0 10.59zM9.253 7.5a.5.5 0 0 1 0 1 3.25 3.25 0 0 0-3.25 3.25.5.5 0 0 1-1 0A4.25 4.25 0 0 1 9.25 7.503h.003z"></path></symbol><symbol viewbox="0 0 32 32" id="icon-key"><path d="M22.004 0c-5.523 0-10 4.478-10 10 0 1.285.27 2.5.713 3.63L.567 25.776C.217 26.13 0 26.463 0 27v3c0 1.07.93 2 2 2h3c.536 0 .875-.215 1.226-.564L7.66 30h2.344a2 2 0 0 0 2-2v-2h2a2 2 0 0 0 2-2v-2.344l2.37-2.37c1.128.444 2.343.714 3.63.714 5.52 0 10-4.478 10-10s-4.48-10-10-10zm0 18c-1.48 0-2.852-.43-4.04-1.132l-.345.343-3.03 3.033A2 2 0 0 0 14 21.657V24h-2a2 2 0 0 0-2 2v2H7.66a2 2 0 0 0-1.413.586L4.83 30.004 2.002 30 2 27.15l11.665-11.644v.002l1.47-1.47c-.702-1.188-1.132-2.56-1.132-4.04a8 8 0 1 1 8 8.002zm5.816-9.76a17.71 17.71 0 0 0-4.055-4.055.96.96 0 0 0-.882-.127c-1.39.49-2.34 1.44-2.826 2.828a.952.952 0 0 0 .127.882 17.736 17.736 0 0 0 4.053 4.053.965.965 0 0 0 .88.13c1.392-.486 2.343-1.44 2.83-2.83a.952.952 0 0 0-.127-.88zm-3 2.77A17.122 17.122 0 0 1 21 7.217c.387-1.103 1.11-1.827 2.182-2.22a16.75 16.75 0 0 1 3.816 3.81c-.39 1.095-1.113 1.815-2.178 2.203z"></path></symbol><symbol viewbox="0 0 32 32" id="icon-lab"><path d="M20.682 3.732C20.21 3.26 19.582 3 18.914 3s-1.295.26-1.77.733l-1.41 1.412A2.482 2.482 0 0 0 15 6.915c0 .47.13.92.37 1.312l-13.576 5.44a2.998 2.998 0 0 0-.908 4.875l12.72 12.58c.548.548 1.276.86 2.045.877h.08a2.985 2.985 0 0 0 2.788-1.89l5.34-13.377c.403.265.876.407 1.368.407.67 0 1.297-.26 1.768-.732L28.4 15c.477-.474.738-1.103.738-1.773s-.262-1.3-.732-1.768l-7.724-7.73zM16.66 29.367a1 1 0 0 1-1.64.34L2.294 17.12a.998.998 0 0 1 .307-1.623l6.218-2.49c4.19 1.393 8.38.05 12.57 4.522L16.66 29.365zM26.99 13.58l-1.414 1.413a.5.5 0 0 1-.707 0L23.1 13.226l-1.432 3.59.12-.304c-3.01-3.005-6.07-3.384-8.83-3.723-.886-.11-1.746-.225-2.59-.407l8.49-3.4-1.715-1.716a.5.5 0 0 1 0-.707l1.414-1.414a.5.5 0 0 1 .705 0l7.725 7.727a.496.496 0 0 1 .002.707zM16.5 21a2.5 2.5 0 1 0-2.5-2.5c0 1.38 1.122 2.5 2.5 2.5zm0-4a1.5 1.5 0 1 1 0 3 1.5 1.5 0 0 1 0-3zm13-17a2.5 2.5 0 0 0 0 5 2.5 2.5 0 0 0 0-5zm0 4a1.5 1.5 0 1 1 0-3 1.5 1.5 0 0 1 0 3zM8 17c0 1.103.897 2 2 2s2-.897 2-2-.897-2-2-2-2 .897-2 2zm2-1a1 1 0 1 1 0 2 1 1 0 0 1 0-2zm2 7a1 1 0 1 1 2 0 1 1 0 0 1-2 0zM28 8a1 1 0 1 1 2 0 1 1 0 0 1-2 0z"></path></symbol><symbol viewbox="0 0 32 32" id="icon-like"><path d="M29.164 10.472c-1.25-.328-4.19-.324-8.488-.438.203-.938.25-1.784.25-3.286C20.926 3.16 18.312 0 16 0c-1.633 0-2.98 1.335-3 2.977-.022 2.014-.645 5.492-4 7.256-.246.13-.95.477-1.053.522L8 10.8c-.525-.453-1.253-.8-2-.8H3c-1.654 0-3 1.346-3 3v16c0 1.654 1.346 3 3 3h3c1.19 0 2.186-.72 2.668-1.727.012.004.033.01.047.012l.24.062.045.012c.576.14 1.685.406 4.055.95.508.117 3.192.69 5.972.69h5.467c1.666 0 2.867-.64 3.582-1.93.01-.02.24-.47.428-1.075a3.33 3.33 0 0 0 .023-1.76c1.074-.738 1.42-1.854 1.645-2.58.377-1.19.264-2.086.002-2.727.604-.57 1.12-1.44 1.336-2.767a3.757 3.757 0 0 0-.39-2.37c.567-.636.825-1.436.855-2.176l.012-.21c.007-.13.013-.21.013-.5 0-1.262-.875-2.873-2.836-3.433zM7 29a1 1 0 0 1-1 1H3a1 1 0 0 1-1-1V13a1 1 0 0 1 1-1h3a1 1 0 0 1 1 1v16zm22.977-14.465C29.957 15.03 29.75 16 28 16h-2a.5.5 0 0 0 0 1h1.938c1.5 0 1.697 1.244 1.6 1.844-.124.746-.474 2.156-2.163 2.156H25a.5.5 0 0 0 0 1h1.97c1.687 0 1.538 1.287 1.296 2.055-.32 1.01-.514 1.945-2.64 1.945h-1.632a.5.5 0 0 0 0 1h1.568c1.094 0 1.145 1.035 1.03 1.406-.124.406-.272.707-.278.72-.302.546-.79.874-1.82.874h-5.467c-2.746 0-5.47-.623-5.54-.64-4.154-.956-4.373-1.03-4.634-1.104 0 0-.846-.143-.846-.88L8 13.562c0-.47.3-.893.794-1.042.062-.023.146-.05.206-.074 4.568-1.892 5.96-6.04 6-9.446.006-.48.375-1 1-1 1.057 0 2.926 2.122 2.926 4.748 0 2.37-.096 2.78-.926 5.252 10 0 9.93.144 10.812.375 1.094.313 1.188 1.22 1.188 1.53 0 .344-.01.294-.023.63zM4.5 26a1.5 1.5 0 1 0 0 3 1.5 1.5 0 0 0 0-3zm0 2c-.275 0-.5-.225-.5-.5s.225-.5.5-.5.5.225.5.5-.225.5-.5.5z"></path></symbol><symbol viewbox="0 0 32 32" id="icon-location"><path d="M16.002 17.746c3.31 0 6-2.692 6-6s-2.69-6-6-6-6 2.69-6 6 2.69 6 6 6zm0-11c2.758 0 5 2.242 5 5s-2.242 5-5 5-5-2.242-5-5 2.242-5 5-5zM16 0C9.382 0 4 5.316 4 12c0 7 6 14.162 10.376 19.195.016.02.718.805 1.586.805h.077c.865 0 1.57-.785 1.584-.805C22.002 26.162 28.002 19.002 28.002 12 28.002 5.317 22.62 0 16 0zm.117 29.883c-.02.02-.082.064-.135.098-.01-.025-.084-.084-.13-.13C12.19 25.63 6 18.513 6 12 6 6.488 10.487 2 16 2c5.516 0 10.002 4.487 10.002 10.002 0 6.512-6.188 13.63-9.885 17.88z"></path></symbol><symbol viewbox="0 0 32 32" id="icon-lock"><path d="M25 13V9A9 9 0 0 0 7 9v4a3 3 0 0 0-3 3v7a9 9 0 0 0 9 9h6a9 9 0 0 0 9-9v-7a3 3 0 0 0-3-3zM9 9a7 7 0 0 1 14 0v4h-2V9.002c0-2.762-2.238-5-5-5s-5 2.238-5 5V13H9V9zm11 0v4h-8V9a4 4 0 0 1 8 0zm6 10v4c0 3.86-3.14 7-7 7h-6c-3.86 0-7-3.14-7-7v-7a1 1 0 0 1 1-1h18a1 1 0 0 1 1 1v3zm-10 0a2 2 0 0 1 2 2c0 .61-.328 1.768-.666 2.682-.273.738-.552 1.316-1.334 1.316-.72 0-1.06-.584-1.333-1.326C14.333 22.76 14 21.607 14 21a2 2 0 0 1 2-2z"></path></symbol><symbol viewbox="0 0 32 32" id="icon-mail"><path d="M28 5H4a4 4 0 0 0-4 4v13a4 4 0 0 0 4 4h24a4 4 0 0 0 4-4V9a4 4 0 0 0-4-4zM2 10.25l7 5.25-7 5.25v-10.5zM30 22c0 1.104-.898 2-2 2H4a2 2 0 0 1-2-2l7.832-5.875 4.368 3.277a3 3 0 0 0 3.6 0l4.368-3.277L30 22zm0-1.25l-7-5.25 7-5.25v10.5zm-12.8-2.148a2 2 0 0 1-2.4 0L2 9c0-1.103.897-2 2-2h24c1.102 0 2 .897 2 2l-12.8 9.602z"></path></symbol><symbol viewbox="0 0 32 32" id="icon-megaphone"><path d="M25 0c-2.053 0-3.666 1.41-4.824 3.586l-.02-.012C18.472 6.867 15.968 9 13.226 9H4c-2.243 0-4 2.197-4 5 0 2.805 1.757 5 4 5a2 2 0 0 1 1.995 2v9a2 2 0 0 0 2 2h4a2 2 0 0 0 2-2v-1c0-1-1-1.447-1-2v-7c0-.023.016-.04.018-.062a.992.992 0 0 1 .112-.395.675.675 0 0 1 .06-.088.99.99 0 0 1 .303-.293c.006-.004.008-.01.014-.014.004 0 .007-.004.01-.004.08-.045.177-.055.267-.08 2.522.268 4.807 2.305 6.375 5.373l.025-.012C21.34 26.595 22.95 28 25 28c4.596 0 7-7.043 7-14S29.596 0 25 0zm-5 14c0-1.037.06-2.04.164-3H23c1.104 0 2 1.344 2 3 0 1.658-.896 3-2 3h-2.836c-.103-.96-.164-1.96-.164-3zM2 14c0-1.656.896-3 2-3h7.014c-.62.73-1.014 1.787-1.014 3 0 1.215.394 2.273 1.014 3H4c-1.104 0-2-1.342-2-3zm9.995 16h-4v-9c0-.73-.195-1.41-.537-2h.698v.012h3.008c-.107.31-.17.64-.17.988v7c0 .963.54 1.604.86 1.986.044.053.096.107.14.166V30zm1.23-12.988H13V17c-1.104 0-2-1.342-2-3 0-1.656.896-3 2-3h.226c1.886 0 3.652-.742 5.206-2.018A28.918 28.918 0 0 0 18 14c0 1.71.146 3.42.434 5.03-1.555-1.276-3.322-2.018-5.208-2.018zM25 26c-2.018 0-3.75-2.87-4.54-7H23c2.242 0 4-2.195 4-5 0-2.803-1.758-5-4-5h-2.54c.79-4.127 2.522-7 4.54-7 2.762 0 5 5.373 5 12s-2.238 12-5 12z"></path></symbol><symbol viewbox="0 0 32 32" id="icon-music"><path d="M31.286.47a1.996 1.996 0 0 0-1.633-.44l-17.002 3A1.998 1.998 0 0 0 11 5v17.17C9.983 21.434 8.666 21 7.204 21c-.85 0-1.7.14-2.53.416C2.78 22.05 1.256 23.318.5 24.9c-.584 1.223-.66 2.553-.214 3.746C1.046 30.684 3.21 32 5.794 32c.85 0 1.7-.14 2.528-.416 1.897-.63 3.42-1.9 4.175-3.48A4.963 4.963 0 0 0 12.98 26h.018V10c.115 0 .232-.01.348-.03L30 7.033V19.17c-1.015-.736-2.33-1.17-3.794-1.17-.85 0-1.7.14-2.53.416-1.897.633-3.42 1.902-4.173 3.484-.584 1.223-.66 2.553-.215 3.746C20.05 27.684 22.21 29 24.796 29c.85 0 1.7-.14 2.53-.416 1.895-.63 3.417-1.9 4.173-3.48A4.964 4.964 0 0 0 31.98 23H32V2c0-.59-.26-1.152-.714-1.53zM7.688 29.687c-2.396.8-4.873.018-5.53-1.74-.657-1.76.752-3.834 3.147-4.633 2.396-.8 4.873-.02 5.53 1.74.658 1.76-.75 3.834-3.147 4.633zm18.965-3c-2.398.8-4.875.018-5.53-1.74-.66-1.76.75-3.834 3.145-4.633 2.398-.8 4.875-.02 5.53 1.74.66 1.76-.748 3.834-3.145 4.633zM29.96 5L12.958 8V5L29.96 2v3z"></path></symbol><symbol viewbox="0 0 32 32" id="icon-news"><path d="M29 0H7a3 3 0 0 0-3 3v2H3a3 3 0 0 0-3 3v20a4 4 0 0 0 4 4h24a4 4 0 0 0 4-4V3a3 3 0 0 0-3-3zm1 28c0 1.102-.898 2-2 2H4c-1.103 0-2-.898-2-2V8a1 1 0 0 1 1-1h1v20a1 1 0 0 0 2 0V3a1 1 0 0 1 1-1h22a1 1 0 0 1 1 1v25zM19.498 13.005a.5.5 0 0 1 0-1h8a.5.5 0 0 1 0 1h-8zm0-3a.5.5 0 0 1 0-1h8a.5.5 0 0 1 0 1h-8zm0-3a.5.5 0 0 1 0-1h8a.5.5 0 0 1 0 1h-8zm-2.998 20a.5.5 0 0 1 0 1h-8a.5.5 0 0 1 0-1h8zm0-3a.5.5 0 0 1 0 1h-8a.5.5 0 0 1 0-1h8zm0-3a.5.5 0 0 1 0 1h-8a.5.5 0 0 1 0-1h8zm11 6a.5.5 0 0 1 0 1h-8a.5.5 0 0 1 0-1h8zm0-3a.5.5 0 0 1 0 1h-8a.5.5 0 0 1 0-1h8zm0-3a.5.5 0 0 1 0 1h-8a.5.5 0 0 1 0-1h8zm0-6a.5.5 0 0 1 0 1h-19a.5.5 0 0 1 0-1h19zm0 3a.5.5 0 0 1 0 1h-19a.5.5 0 0 1 0-1h19zM9 13h7a1 1 0 0 0 1-1V5.004a1 1 0 0 0-1-1H9a1 1 0 0 0-1 1V12a1 1 0 0 0 1 1zm1-7h5v5h-5V6z"></path></symbol><symbol viewbox="0 0 32 32" id="icon-note"><path d="M31.414 7.585l-6-6A2 2 0 0 0 24 1H3C1.346 1 0 2.345 0 4v24c0 1.654 1.346 3 3 3h26c1.654 0 3-1.346 3-3V9a2 2 0 0 0-.586-1.415zM30 28a1 1 0 0 1-1 1H3a1 1 0 0 1-1-1V4a1 1 0 0 1 1-1h20v4h-.002a3 3 0 0 0 3 3H30v18zM26.998 9h-1c-1.102 0-2-.897-2-2H24V3l6 6h-3.002zM15.5 8a.5.5 0 0 1 0-1h5a.5.5 0 0 1 0 1h-5zm0 3a.5.5 0 0 1 0-1h5a.5.5 0 0 1 0 1h-5zm-.5 2.5a.5.5 0 0 1 .5-.5h12a.5.5 0 0 1 0 1h-12a.5.5 0 0 1-.5-.5zM27.5 19a.5.5 0 0 1 0 1h-23a.5.5 0 0 1 0-1h23zm0 3a.5.5 0 0 1 0 1h-23a.5.5 0 0 1 0-1h23zm0 3a.5.5 0 0 1 0 1h-23a.5.5 0 0 1 0-1h23zm0-9a.5.5 0 0 1 0 1h-23a.5.5 0 0 1 0-1h23zM5 14h7a1 1 0 0 0 1-1V7a1 1 0 0 0-1-1H5a1 1 0 0 0-1 1v6a1 1 0 0 0 1 1zm1-6h5v4H6V8z"></path></symbol><symbol viewbox="0 0 32 32" id="icon-paperplane"><path d="M31.543.16a1.002 1.002 0 0 0-1.098.008l-30 20a.995.995 0 0 0-.44.936 1 1 0 0 0 .624.824l7.822 3.13 3.68 6.44a1 1 0 0 0 .856.503H13c.35 0 .677-.184.857-.484l2.077-3.463 9.695 3.877a.992.992 0 0 0 .86-.058 1 1 0 0 0 .495-.708l5-30A1.002 1.002 0 0 0 31.543.16zM3.136 20.777L26.31 5.327 9.46 23.362c-.088-.053-.167-.123-.265-.162l-6.06-2.423zm7.053 3.29l-.01-.01L29.126 3.78l-16.15 25.163-2.786-4.877zm15.026 5.542l-8.54-3.418a1.987 1.987 0 0 0-.624-.12L29.205 5.687 25.217 29.61z"></path></symbol><symbol viewbox="0 0 32 32" id="icon-params"><path d="M8 6.02V3c0-1.654-1.346-3-3-3S2 1.346 2 3v3.02C.792 6.937 0 8.37 0 10s.792 3.064 2 3.977V29c0 1.654 1.346 3 3 3s3-1.346 3-3V13.977c1.208-.912 2-2.346 2-3.977s-.792-3.064-2-3.98zM4 3a1 1 0 0 1 2 0v2.1a5.062 5.062 0 0 0-2 0V3zm2 26a1 1 0 0 1-2 0V14.898a4.916 4.916 0 0 0 2 0V29zm1.865-18.16c-.016.053-.03.105-.05.158a2.944 2.944 0 0 1-.377.736l-.014.016c-.174.238-.38.45-.616.627l-.01.008c-.24.182-.51.328-.8.43-.312.113-.645.185-.998.185s-.686-.072-1-.186a2.962 2.962 0 0 1-.8-.43l-.01-.008a3.026 3.026 0 0 1-.615-.627c-.004-.008-.01-.01-.014-.018a2.98 2.98 0 0 1-.376-.736c-.02-.053-.033-.105-.05-.158A2.945 2.945 0 0 1 2 10c0-.295.055-.574.135-.842.016-.053.03-.105.05-.156a2.89 2.89 0 0 1 .377-.738l.014-.016c.174-.236.38-.45.616-.627.004 0 .007-.004.01-.006.24-.18.51-.326.798-.43.314-.11.647-.183 1-.183s.686.073 1 .185c.29.104.558.25.8.43.002.002.005.006.01.008.234.178.44.39.615.627l.014.015a2.93 2.93 0 0 1 .424.893c.08.268.135.547.135.842 0 .293-.056.572-.136.84zM30 6.02V3c0-1.654-1.346-3-3-3s-3 1.346-3 3v3.02c-1.21.916-2 2.35-2 3.98s.79 3.064 2 3.977V29c0 1.654 1.346 3 3 3s3-1.346 3-3V13.977c1.207-.912 2-2.346 2-3.977s-.793-3.064-2-3.98zM26 3a1 1 0 0 1 2 0v2.1a5.077 5.077 0 0 0-2 0V3zm2 26a1 1 0 0 1-2 0V14.898a4.902 4.902 0 0 0 2 0V29zm1.865-18.16c-.016.053-.03.105-.05.158a2.947 2.947 0 0 1-.378.736l-.014.016c-.174.238-.38.45-.615.627l-.01.008c-.242.182-.51.328-.8.43A2.932 2.932 0 0 1 27 13a2.91 2.91 0 0 1-1-.186 2.947 2.947 0 0 1-.81-.438 3.006 3.006 0 0 1-.616-.627c-.004-.008-.01-.01-.014-.018a2.975 2.975 0 0 1-.377-.736c-.02-.053-.033-.105-.05-.158A2.945 2.945 0 0 1 24 10c0-.295.055-.574.135-.842.016-.053.03-.105.05-.156.093-.264.216-.514.376-.738l.016-.016c.174-.236.38-.45.617-.627.004 0 .006-.004.01-.006.24-.18.51-.326.8-.43A2.97 2.97 0 0 1 27 7c.352 0 .686.072 1 .184a3.093 3.093 0 0 1 .81.438c.233.178.44.39.614.627l.014.014c.162.225.283.475.38.738.017.05.032.104.048.156a2.9 2.9 0 0 1 .134.84c0 .293-.055.572-.135.84zM19 18.02V3c0-1.654-1.346-3-3-3s-3 1.346-3 3v15.02c-1.208.915-2 2.35-2 3.98s.792 3.064 2 3.977V29c0 1.654 1.346 3 3 3s3-1.346 3-3v-3.023c1.207-.912 2-2.346 2-3.977s-.793-3.064-2-3.98zM15 3a1 1 0 0 1 2 0v14.1a5.062 5.062 0 0 0-2 0V3zm2 26a1 1 0 0 1-2 0v-2.102a4.916 4.916 0 0 0 2 0V29zm1.865-6.16c-.016.053-.03.105-.05.158a2.947 2.947 0 0 1-.378.736l-.014.016c-.174.238-.38.45-.615.627l-.01.008c-.242.182-.51.328-.8.43-.312.113-.646.185-.998.185s-.686-.072-1-.186a2.962 2.962 0 0 1-.8-.43l-.01-.008a3.026 3.026 0 0 1-.615-.627c-.004-.008-.01-.01-.014-.018a2.98 2.98 0 0 1-.376-.736c-.02-.053-.033-.105-.05-.158A2.945 2.945 0 0 1 13 22c0-.295.055-.574.135-.842.016-.053.03-.105.05-.156.094-.264.216-.514.377-.738l.014-.016c.174-.236.38-.45.616-.627.004 0 .007-.004.01-.006.24-.18.51-.326.8-.43A2.99 2.99 0 0 1 16 19c.352 0 .686.073 1 .185a3.093 3.093 0 0 1 .81.438c.233.178.44.39.614.627l.014.015c.162.225.283.475.38.738.017.05.032.104.048.156A2.9 2.9 0 0 1 19 22c0 .292-.055.57-.135.84z"></path></symbol><symbol viewbox="0 0 32 32" id="icon-pen"><path d="M29.395 2.58C27.75.937 25.585 0 23.45 0c-1.802 0-3.46.668-4.67 1.877L13.91 6.78c-.015.015-.032.024-.047.04-.008.007-.013.018-.02.025v.002L3.518 17.257a4.023 4.023 0 0 0-1.013 1.704l-2.35 8.51c0 .023-.154.69-.154 1.03C0 30.433 1.57 32 3.505 32c.385 0 1.13-.184 1.157-.188l8.48-2.23a4.02 4.02 0 0 0 1.705-1.015l15.263-15.383c2.776-2.778 2.463-7.434-.712-10.604zm-13.38 21.215a8.145 8.145 0 0 0-.72-2.627l9.455-9.454c.578 1.826.28 3.736-.986 5.004-.008.008-.018.013-.025.02l.012.014-7.728 7.79c0-.25.012-.493-.01-.747zm-1.222-3.54c-.373-.612-.797-1.204-1.322-1.728-.61-.61-1.31-1.09-2.042-1.492l9.532-9.532a6.94 6.94 0 0 1 2.097 1.438c.54.54.96 1.145 1.28 1.773l-9.544 9.544zm-4.307-3.693a7.976 7.976 0 0 0-2.868-.6l7.703-7.76c1.18-1.15 2.898-1.482 4.59-1.063l-9.423 9.42zm-6.32 13.31c-.108.026-.447.112-.677.128A1.505 1.505 0 0 1 2 28.5c.012-.168.08-.457.102-.562l1.053-3.814c1.143-.03 2.373.414 3.34 1.383.982.98 1.444 2.234 1.394 3.39l-3.724.976zm4.708-1.235c-.024-1.342-.57-2.738-1.672-3.838-1.042-1.045-2.406-1.647-3.766-1.7l.996-3.608a1.96 1.96 0 0 1 .39-.684c2.007-1.437 5.092-1.013 7.235 1.132 2.267 2.266 2.617 5.586.87 7.568a1.97 1.97 0 0 1-.358.156l-3.697.97zM28.69 11.772l-1.683 1.697c0-.228.027-.445.006-.676-.176-1.935-1.078-3.806-2.543-5.27-1.63-1.63-3.79-2.564-5.928-2.57l1.656-1.67C21.028 2.458 22.184 2 23.448 2c1.61 0 3.263.728 4.534 1.995 1.193 1.19 1.904 2.67 2.006 4.168.094 1.397-.367 2.678-1.297 3.61z"></path></symbol><symbol viewbox="0 0 32 32" id="icon-phone"><path d="M24 0H8a3 3 0 0 0-3 3v26a3 3 0 0 0 3 3h16a3 3 0 0 0 3-3V3a3 3 0 0 0-3-3zm1 29c0 .55-.45 1-1 1H8a1 1 0 0 1-1-1v-2.004h18V29zm0-3.004H7V6h18v19.996zM25 5H7V3a1 1 0 0 1 1-1h16a1 1 0 0 1 1 1v2zm-7-1.5a.5.5 0 0 1-.5.5h-3a.5.5 0 0 1 0-1h3a.5.5 0 0 1 .5.5zm-1 24.996a.5.5 0 0 1-.5.5h-1a.5.5 0 0 1 0-1h1a.5.5 0 0 1 .5.5z"></path></symbol><symbol viewbox="0 0 32 32" id="icon-photo"><path d="M27 0H5a4 4 0 0 0-4 4v24a4 4 0 0 0 4 4h22a4 4 0 0 0 4-4V4a4 4 0 0 0-4-4zm2 28c0 1.102-.898 2-2 2H5c-1.103 0-2-.898-2-2V4c0-1.103.897-2 2-2h22c1.102 0 2 .897 2 2v24zM26 4H6a1 1 0 0 0-1 1v18a1 1 0 0 0 1 1h20a1 1 0 0 0 1-1V5a1 1 0 0 0-1-1zm0 1v13.87l-3.25-3.53a1 1 0 0 0-1.5 0l-2.604 2.95-7.896-8.95a.998.998 0 0 0-1.5 0L6 13.086V5h20zM6 14.6l4-4.6 8.646 9.8 2.762 3.2H6v-8.4zM22.74 23l-3.428-3.955L22 16l4 4.38V23h-3.26zM20 13a3 3 0 1 0 0-6 3 3 0 0 0 0 6zm0-5c1.102 0 2 .897 2 2s-.898 2-2 2c-1.104 0-2-.897-2-2s.896-2 2-2z"></path></symbol><symbol viewbox="0 0 32 32" id="icon-search"><path d="M20 .005c-6.627 0-12 5.373-12 12 0 2.026.507 3.933 1.395 5.608L1.05 25.955l.008.006A3.515 3.515 0 0 0 0 28.48a3.53 3.53 0 0 0 3.53 3.53c.984 0 1.873-.407 2.514-1.06l-.002-.002 8.34-8.34c1.677.89 3.587 1.4 5.618 1.4 6.627 0 12-5.373 12-12s-5.373-12-12-12zM4.795 29.697a1.75 1.75 0 0 1-1.266.543c-.977 0-1.767-.79-1.767-1.764 0-.498.21-.943.543-1.266l-.01-.008 8.067-8.066a12.1 12.1 0 0 0 2.494 2.498l-8.063 8.063zM20 22.007c-5.522 0-10-4.48-10-10s4.478-10 10-10c5.52 0 10 4.477 10 10s-4.48 10-10 10zm0-17.002a.5.5 0 0 1 0 1 6 6 0 0 0-6 6 .5.5 0 0 1-1 0 7 7 0 0 1 7-7z"></path></symbol><symbol viewbox="0 0 32 32" id="icon-settings"><path d="M30.39 12.68l-3.063-.614a12.098 12.098 0 0 0-.537-1.29l1.736-2.603a2 2 0 0 0-.25-2.523l-1.924-1.924a1.996 1.996 0 0 0-2.523-.25L21.223 5.21a12.09 12.09 0 0 0-1.29-.535L19.32 1.61A1.998 1.998 0 0 0 17.36.002h-2.72a2 2 0 0 0-1.962 1.608l-.614 3.065c-.443.154-.873.335-1.29.536l-2.6-1.733a1.996 1.996 0 0 0-2.525.25L3.724 5.65a2 2 0 0 0-.25 2.523l1.735 2.604a11.99 11.99 0 0 0-.536 1.29l-3.066.613A2 2 0 0 0 0 14.64v2.72a2 2 0 0 0 1.608 1.962l3.065.615c.154.443.335.873.536 1.29L3.473 23.83a2 2 0 0 0 .25 2.523l1.924 1.924a1.996 1.996 0 0 0 2.522.25l2.604-1.736c.417.205.847.385 1.29.54l.613 3.063a2 2 0 0 0 1.96 1.61h2.72a2 2 0 0 0 1.96-1.61l.616-3.064c.443-.155.873-.337 1.29-.538l2.603 1.737a1.998 1.998 0 0 0 2.522-.25l1.924-1.925a2 2 0 0 0 .25-2.523l-1.736-2.604c.203-.418.383-.848.537-1.29l3.064-.614a2 2 0 0 0 1.61-1.96v-2.72a2 2 0 0 0-1.61-1.962zm-3.456 5.295a1.997 1.997 0 0 0-1.496 1.305c-.13.37-.28.727-.447 1.074a2 2 0 0 0 .137 1.982l1.736 2.604-1.924 1.924-2.605-1.736a1.997 1.997 0 0 0-1.98-.137c-.348.17-.705.32-1.076.45-.67.233-1.165.8-1.304 1.497l-.615 3.066h-2.72l-.612-3.066a1.997 1.997 0 0 0-1.304-1.496c-.37-.13-.728-.28-1.075-.446a1.994 1.994 0 0 0-1.98.135l-2.606 1.735L5.14 24.94l1.734-2.604c.393-.59.444-1.344.137-1.98a10.312 10.312 0 0 1-.446-1.076 2 2 0 0 0-1.496-1.303l-3.065-.615L2 14.642l3.066-.614a2 2 0 0 0 1.496-1.304c.13-.37.278-.728.447-1.075a1.995 1.995 0 0 0-.138-1.983L5.14 7.064 7.06 5.14l2.604 1.735a1.997 1.997 0 0 0 1.98.137c.347-.168.705-.32 1.075-.448a2 2 0 0 0 1.304-1.496l.614-3.065h2.72l.612 3.065a2 2 0 0 0 1.305 1.496c.37.13.727.278 1.074.447a1.998 1.998 0 0 0 1.982-.134l2.604-1.735 1.924 1.925-1.735 2.604a2.006 2.006 0 0 0-.137 1.98c.168.346.32.704.45 1.074.23.67.8 1.165 1.495 1.304l3.064.614.003 2.72-3.066.615zM16 9a7 7 0 1 0 0 14 7 7 0 0 0 0-14zm0 13.127c-3.382 0-6.125-2.744-6.125-6.125S12.618 9.877 16 9.877a6.127 6.127 0 0 1 6.125 6.125A6.127 6.127 0 0 1 16 22.127zM16 12c-2.21 0-4 1.79-4 4s1.79 4 4 4a4 4 0 0 0 0-8zm0 7.002a3 3 0 0 1 0-6 3 3 0 0 1 0 6z"></path></symbol><symbol viewbox="0 0 32 32" id="icon-shop"><path d="M31.4 11.2l-3-3.998a2.967 2.967 0 0 0-.4-.423V2a2 2 0 0 0-2-2H6a2 2 0 0 0-2 2v4.78a3 3 0 0 0-.4.42l-3 4A3.013 3.013 0 0 0 0 13v1c0 1.654 1.346 3 3 3v13a2 2 0 0 0 2 2h22a2 2 0 0 0 2-2V17c1.654 0 3-1.346 3-3v-1c0-.646-.213-1.285-.6-1.8zM26 2v4H6V2h20zM10.193 15h-4.19l4-7h2.19l-2 7zm3.04-7H15.5v7h-4.266l2-7zM16.5 8h2.266l2 7H16.5V8zm3.305 0h2.19l4 7h-4.19l-2-7zM2 14v-1c0-.217.07-.427.2-.6l3-4A1 1 0 0 1 6 8h2.852l-4 7H3a1 1 0 0 1-1-1zm18 16h-7.5V20H20v10zm7 0h-6V20a1 1 0 0 0-1-1h-7.5a1 1 0 0 0-1 1v10H5V17h22v13zm3-16a1 1 0 0 1-1 1h-1.854l-4-7H26c.314 0 .61.148.8.4l3 4c.13.173.2.383.2.6v1z"></path></symbol><symbol viewbox="0 0 32 32" id="icon-sound"><path d="M26.998 14.003c0-4.962-4.037-9-9-9V5A.5.5 0 0 1 18 4c.01 0 .018.004.025.006a9.996 9.996 0 0 1 9.973 9.986L28 14a.5.5 0 0 1-1 .003h-.002zM9.12.878a2.996 2.996 0 0 0-3.267-.65A3 3 0 0 0 4 3v13.757L.88 19.88a2.998 2.998 0 0 0 0 4.24l7 7c.585.587 1.352.88 2.12.88s1.535-.293 2.12-.88L15.243 28H29a2.99 2.99 0 0 0 2.77-1.852 2.998 2.998 0 0 0-.65-3.27L9.12.878zm4.708 25.708l-3.12 3.12a1 1 0 0 1-1.415 0l-7-7a.998.998 0 0 1 0-1.413l3.12-3.12c.01-.01.012-.022.02-.032l8.426 8.428c-.01.007-.024.01-.033.02zM15.242 26c-.155 0-.3.055-.447.088L5.91 17.203c.034-.148.09-.292.09-.446V4.71L27.287 26H15.242zm14.68-.617a.995.995 0 0 1-.924.617H28.7L6 3.297V3a.996.996 0 0 1 1-1c.267 0 .518.104.706.292l22 22a.996.996 0 0 1 .216 1.09zM17.998 2A1 1 0 0 1 18 0c.01 0 .018.004.025.005 7.717.014 13.967 6.27 13.973 13.987L32 14a1 1 0 0 1-2 .004h-.002c0-6.617-5.383-12-12-12V2z"></path></symbol><symbol viewbox="0 0 32 32" id="icon-stack"><path d="M31.924 18.455L27.922 3.45A2.005 2.005 0 0 0 26 2H6c-.89 0-1.68.596-1.922 1.45L.076 18.454C.026 18.637 0 18.82 0 19v7a4 4 0 0 0 4 4h24a4 4 0 0 0 4-4v-7c0-.18-.025-.363-.076-.545zM30 26c0 1.102-.898 2-2 2H4c-1.103 0-2-.898-2-2v-7L6 4h20l4 15v7zM23.742 6H8.258a1 1 0 0 0-.967.743l-3.443 12A1 1 0 0 0 4.812 20H9.38l1.447 2.895A2.003 2.003 0 0 0 12.617 24h6.766c.758 0 1.45-.428 1.79-1.105L22.618 20h4.567a1 1 0 0 0 .967-1.258l-3.445-12A1 1 0 0 0 23.74 6zm.54 12H22.62a1.99 1.99 0 0 0-1.79 1.105L19.382 22h-6.766l-1.447-2.895A1.99 1.99 0 0 0 9.38 18H5.335L8.258 7h15.484l2.924 11H24.28z"></path></symbol><symbol viewbox="0 0 32 32" id="icon-star"><path d="M31.88 12.557a2.303 2.303 0 0 0-1.843-1.51l-8.326-1.24-3.617-7.513C17.713 1.504 16.896 1 16 1s-1.71.505-2.092 1.294l-3.62 7.514-8.326 1.238a2.3 2.3 0 0 0-1.842 1.51 2.208 2.208 0 0 0 .537 2.286l6.102 6.092-1.417 8.45a2.225 2.225 0 0 0 .948 2.204 2.35 2.35 0 0 0 2.45.13L16 27.812l7.26 3.91a2.367 2.367 0 0 0 2.45-.132 2.225 2.225 0 0 0 .946-2.203l-1.416-8.45 6.104-6.093c.603-.603.81-1.485.537-2.285zm-8.292 6.806a2.216 2.216 0 0 0-.627 1.934l1.418 8.45-7.26-3.905a2.36 2.36 0 0 0-2.235 0l-7.26 3.906 1.415-8.45a2.212 2.212 0 0 0-.626-1.935L2.31 13.27l8.326-1.24a2.306 2.306 0 0 0 1.743-1.267L16 3.25l3.62 7.514a2.31 2.31 0 0 0 1.742 1.268l8.328 1.24-6.102 6.09z"></path></symbol><symbol viewbox="0 0 32 32" id="icon-study"><path d="M32 8a2.987 2.987 0 0 0-2.326-2.924L16.66 2.073a3.016 3.016 0 0 0-1.335.003l-13 3C.955 5.392 0 6.594 0 8s.957 2.608 2.325 2.924L5 11.54V20c0 2.654 3.038 5 11 5s11-2.346 11-5v-8.46l2.674-.616A2.987 2.987 0 0 0 32 8zm-7 12c0 1.105-3 3-9 3s-9-1.895-9-3v-7.997l8.338 1.924a3.025 3.025 0 0 0 1.336-.003L25 12.004V20zm-8.775-8.025a1.077 1.077 0 0 1-.45 0l-13-3a1 1 0 0 1 0-1.95l13-3a1.063 1.063 0 0 1 .45 0l13 3a1 1 0 0 1 0 1.95l-13 3zM29 13a1 1 0 0 1 2 0v9a1 1 0 0 1-2 0v-9zm1 11c1.104 0 2 2.896 2 4a2 2 0 0 1-4 0c0-1.104.895-4 2-4z"></path></symbol><symbol viewbox="0 0 32 32" id="icon-t-shirt"><path d="M31.25 6.438l-5-4A2.003 2.003 0 0 0 25 2H7a2 2 0 0 0-1.25.438l-5 4a2 2 0 0 0-.647 2.195l2 6A2 2 0 0 0 5 15.733V28a2 2 0 0 0 2 2h18a2 2 0 0 0 2-2V15.732a2.002 2.002 0 0 0 1.648.16 1.998 1.998 0 0 0 1.248-1.26l2-6a2 2 0 0 0-.646-2.194zM19.754 4C19.2 5.16 17.736 6 16 6s-3.202-.84-3.754-2h7.508zM28 14l-3-2v16H7V12l-3 2-2-6 5-4h4.177c.557 1.722 2.496 3 4.823 3s4.266-1.278 4.822-3H25l5 4-2 6z"></path></symbol><symbol viewbox="0 0 32 32" id="icon-tag"><path d="M31.39 13.883l-5-8A4 4 0 0 0 23 4.003H4a4 4 0 0 0-4 4v16a4 4 0 0 0 4 4h19c1.38 0 2.66-.71 3.39-1.88l5-8a3.993 3.993 0 0 0 0-4.24zm-1.695 3.18l-5 8a1.988 1.988 0 0 1-1.695.94H4c-1.103 0-2-.898-2-2v-16c0-1.103.897-2 2-2h19a1.99 1.99 0 0 1 1.695.94l5 8a2.01 2.01 0 0 1 0 2.12zM23 13.003A3 3 0 1 0 22.998 19 3 3 0 0 0 23 13.004zm0 5a2 2 0 1 1 0-4 2 2 0 0 1 0 4z"></path></symbol><symbol viewbox="0 0 32 32" id="icon-trash"><path d="M29.98 6.82A2.99 2.99 0 0 0 27 4.002h-3V3a3 3 0 0 0-3-3H11a3 3 0 0 0-3 3v1.002H5a2.99 2.99 0 0 0-2.98 2.816H2V9a2 2 0 0 0 2 2v17a4 4 0 0 0 4 4h16a4 4 0 0 0 4-4V11a2 2 0 0 0 2-2V6.82h-.02zM10 3a1 1 0 0 1 1-1h10a1 1 0 0 1 1 1v1H10V3zm16 25c0 1.102-.898 2-2 2H8c-1.103 0-2-.898-2-2V11h20v17zm2-20v1H4V7a1 1 0 0 1 1-1h22a1 1 0 0 1 1 1v1zM9 28.005h2a1 1 0 0 0 1-1v-13a1 1 0 0 0-1-1H9a1 1 0 0 0-1 1v13a1 1 0 0 0 1 1zm0-14h2v13H9v-13zm6 14h2a1 1 0 0 0 1-1v-13a1 1 0 0 0-1-1h-2a1 1 0 0 0-1 1v13a1 1 0 0 0 1 1zm0-14h2v13h-2v-13zm6 14h2a1 1 0 0 0 1-1v-13a1 1 0 0 0-1-1h-2a1 1 0 0 0-1 1v13a1 1 0 0 0 1 1zm0-14h2v13h-2v-13z"></path></symbol><symbol viewbox="0 0 32 32" id="icon-truck"><path d="M24.832 11.445A1 1 0 0 0 24 11h-1a1 1 0 0 0-1 1v6a1 1 0 0 0 1 1h4a1 1 0 0 0 1-1v-1.5c0-.197-.06-.39-.168-.555l-3-4.5zM27 18h-4v-6h1l3 4.5V18zm4.496-2.664l-4-6A2.995 2.995 0 0 0 25 8h-4V6c0-1.654-1.346-3-3-3H3C1.346 3 0 4.346 0 6v11c0 1.654 1.346 3 3 3v3c0 1.654 1.346 3 3 3h1.142c.447 1.72 2 3 3.86 3 1.856 0 3.41-1.28 3.856-3h5.282c.447 1.72 2 3 3.86 3 1.856 0 3.41-1.28 3.856-3H29c1.654 0 3-1.346 3-3v-6c0-.594-.174-1.17-.504-1.664zM3 18a1 1 0 0 1-1-1V6a1 1 0 0 1 1-1h15a1 1 0 0 1 1 1v11a1 1 0 0 1-1 1H3zm8 9a2 2 0 1 1 0-4 2 2 0 0 1 0 4zm13 0a2 2 0 1 1 0-4 2 2 0 0 1 0 4zm6-4a1 1 0 0 1-1 1h-1.143c-.447-1.72-2-3-3.857-3-1.86 0-3.412 1.28-3.86 3h-5.28c-.448-1.72-2-3-3.858-3-1.86 0-3.412 1.28-3.86 3H6a1 1 0 0 1-1-1v-3h13c1.654 0 3-1.346 3-3v-7h4a1 1 0 0 1 .832.445l4 6c.11.164.168.358.168.555v6z"></path></symbol><symbol viewbox="0 0 32 32" id="icon-tv"><path d="M22.17 8.624c-2.707-.557-5.455-.84-8.165-.84s-5.457.283-8.165.84c-.35.072-.636.326-.75.667-1.44 4.383-1.44 8.825 0 13.206a1 1 0 0 0 .75.666 40.69 40.69 0 0 0 8.165.84c2.71 0 5.458-.283 8.165-.84a1 1 0 0 0 .75-.666c1.44-4.38 1.44-8.823 0-13.204-.113-.34-.4-.594-.75-.666zm-.2 13.558a39.196 39.196 0 0 1-15.928 0c-1.38-4.193-1.38-8.385 0-12.58a39.16 39.16 0 0 1 15.927 0c1.38 4.194 1.38 8.386 0 12.58zM30.853 6.32a2 2 0 0 0-1.705-1.522C24.79 4.268 20.366 4 16.004 4s-8.783.268-13.143.797A2 2 0 0 0 1.16 6.32a41.43 41.43 0 0 0 0 19.36 1.996 1.996 0 0 0 1.704 1.52c2.1.257 4.216.444 6.33.577-.113.073-.187.147-.187.223 0 .553 3.134 1 7 1s7-.447 7-1c0-.076-.074-.15-.188-.223 2.115-.133 4.23-.32 6.33-.576.83-.1 1.512-.705 1.705-1.52a41.403 41.403 0 0 0 .002-19.36zm-1.946 18.897a106.8 106.8 0 0 1-25.805 0c-1.463-6.145-1.463-12.29 0-18.434a106.697 106.697 0 0 1 25.805 0c1.463 6.144 1.463 12.29 0 18.434zM26.507 12a1.5 1.5 0 1 0 0-3 1.5 1.5 0 0 0 0 3zm0-2c.274 0 .5.225.5.5s-.226.5-.5.5-.5-.225-.5-.5.223-.5.5-.5zm1 12a.5.5 0 0 1 0 1h-3a.5.5 0 0 1 0-1h3zm1-3a.5.5 0 0 1 0 1h-3a.5.5 0 0 1 0-1h3zm0-3a.5.5 0 0 1 0 1h-3a.5.5 0 0 1 0-1h3zm-15-4.196c.274-.01.5.204.5.48s-.227.508-.5.518l-3.75.257a.67.67 0 0 0-.565.544L9.025 15.5c-.01.275-.245.5-.518.5s-.487-.225-.473-.5l.305-2.786a.706.706 0 0 1 .58-.55l4.584-.36z"></path></symbol><symbol viewbox="0 0 32 32" id="icon-user"><path d="M31.11 28.336c-.2-.133-3.848-2.525-9.273-3.7 1.99-2.52 3.268-5.91 3.81-8.168.755-3.128.462-9.248-2.542-13.062C21.35 1.176 18.892 0 16 0s-5.35 1.178-7.104 3.406C5.892 7.22 5.6 13.34 6.353 16.466c.543 2.258 1.82 5.65 3.81 8.17-5.424 1.174-9.07 3.566-9.27 3.7A2 2 0 0 0 2 32h28a2 2 0 0 0 1.11-3.664zm-10.843-4.938l-.326.414c-2.383 2.74-5.493 2.74-7.877 0l-.327-.414C8.95 19.868 7.57 15.2 8.164 10.748 8.708 6.468 11.16 2 16 2s7.293 4.47 7.838 8.75c.593 4.454-.784 9.117-3.57 12.648zM2 30c.138-.092 3.526-2.314 8.586-3.408l2.484-.537c.887.582 1.86.945 2.93.945s2.043-.363 2.93-.945l2.484.537C26.434 27.678 29.81 29.875 30 30H2z"></path></symbol><symbol viewbox="0 0 32 32" id="icon-video"><path d="M30 6h-.887a2 2 0 0 0-1.404.576L25 9.248V8a3 3 0 0 0-3-3H3C1.346 5 0 6.345 0 8v16a3 3 0 0 0 3 3h19a3 3 0 0 0 3-3v-1.22l2.71 2.67c.374.37.878.577 1.403.577H30a2 2 0 0 0 2-2V8a2 2 0 0 0-2-2zM3 25a1 1 0 0 1-1-1V8a1 1 0 0 1 1-1h19a1 1 0 0 1 1 1v16c0 .55-.45 1-1 1H3zm27-.973h-1l-4-4V20l-1-1v-6l5-5h1v16.027z"></path></symbol><symbol viewbox="0 0 32 32" id="icon-vynil"><path d="M21.95 1.15c-8.2-3.284-17.514.702-20.8 8.905-3.285 8.204.703 17.518 8.906 20.802s17.516-.702 20.8-8.905c3.287-8.204-.702-17.516-8.905-20.802zM10.8 29C3.634 26.13.138 17.968 3.007 10.8S14.042.137 21.21 3.008c7.165 2.87 10.66 11.034 7.792 18.2C26.132 28.375 17.967 31.87 10.8 29zm5.95-14.853a2 2 0 0 0-1.49 3.713 2 2 0 0 0 1.49-3.713zm-1.118 2.786a1.003 1.003 0 0 1-.557-1.3c.206-.513.79-.762 1.3-.558a1 1 0 0 1-.744 1.858zm2.602-6.498a6 6 0 1 0-4.46 11.14 6 6 0 0 0 4.46-11.14zm-3.716 9.282a4.005 4.005 0 0 1-2.227-5.2 4.005 4.005 0 0 1 5.2-2.227 4.007 4.007 0 0 1 2.23 5.2 4.005 4.005 0 0 1-5.2 2.227zm8.914-.74h-.002a7.978 7.978 0 0 1-4.256 4.367c-.007.003-.01.01-.02.015a.5.5 0 0 1-.395-.92 6.98 6.98 0 0 0 3.742-3.835.5.5 0 1 1 .93.37zm3.433.837a.5.5 0 0 1 .28.65 11.962 11.962 0 0 1-6.386 6.548c-.014.005-.023.016-.035.022a.5.5 0 0 1-.394-.92 10.965 10.965 0 0 0 5.884-6.022.5.5 0 0 1 .65-.278zm-1.857-.743a.5.5 0 0 1 .28.65 9.967 9.967 0 0 1-5.32 5.458c-.012.006-.018.015-.028.02a.5.5 0 0 1-.392-.92h-.002a8.958 8.958 0 0 0 4.812-4.928.5.5 0 0 1 .65-.28zM13.513 8.914a.5.5 0 0 1-.263.658 6.975 6.975 0 0 0-3.743 3.833.5.5 0 1 1-.93-.372h.002a7.978 7.978 0 0 1 4.254-4.365c.007-.003.012-.01.02-.014a.5.5 0 0 1 .658.263zm-1.575-3.677a.5.5 0 0 1-.262.657 10.97 10.97 0 0 0-5.883 6.022.5.5 0 1 1-.928-.373 11.962 11.962 0 0 1 6.385-6.547c.01-.005.02-.016.03-.02a.5.5 0 0 1 .658.262zm.524 2.494v.002A8.965 8.965 0 0 0 7.65 12.66a.5.5 0 0 1-.927-.373 9.97 9.97 0 0 1 5.32-5.458c.01-.006.016-.016.026-.02a.5.5 0 0 1 .393.917z"></path></symbol><symbol viewbox="0 0 32 32" id="icon-wallet"><path d="M16 20a2 2 0 1 1 4 0 2 2 0 0 1-4 0zm13-7V4a3 3 0 0 0-3-3H5.5A5.506 5.506 0 0 0 0 6.5v20C0 29.532 2.467 32 5.5 32h18c3.032 0 5.5-2.468 5.5-5.5V25c4-3 4-9 0-12zM5.5 3H26a1 1 0 0 1 1 1v6.184A2.966 2.966 0 0 0 26 10V5a1 1 0 0 0-1-1H4a1 1 0 0 0-1 1v3.943c-.618-.63-1-1.49-1-2.443A3.5 3.5 0 0 1 5.5 3zM25 6H4V5h21v1zm0 1v1H4V7h21zm0 2v1H5.5A3.46 3.46 0 0 1 4 9.65V9h21zm2 17.5a3.5 3.5 0 0 1-3.5 3.5h-18A3.5 3.5 0 0 1 2 26.5V10.74c.95.786 2.17 1.26 3.5 1.26H26a1 1 0 0 1 1 1v2h-9a5 5 0 0 0 0 10h9v1.5zm1.277-3.5H18c-1.654 0-3-1.346-3-3s1.346-3 3-3h9a2.062 2.062 0 0 0 1.602-.804c.104-.14.185-.297.25-.46.01-.023.025-.04.033-.063.72.943 1.115 2.1 1.115 3.327 0 1.538-.62 2.965-1.723 4z"></path></symbol><symbol viewbox="0 0 32 32" id="icon-world"><path d="M15.5 0C6.94 0 0 6.94 0 15.5S6.94 31 15.5 31 31 24.06 31 15.5 24.06 0 15.5 0zm13.475 15H22.98c-.056-2.215-.45-4.33-1.15-6.268a16.334 16.334 0 0 0 3.737-2.197A13.433 13.433 0 0 1 28.975 15zM14.947 28.972c-1.662-1.384-3.056-3.18-4.076-5.268 1.31-.41 2.698-.633 4.13-.68v5.95c-.017 0-.034 0-.052-.002zM16.05 2.028c1.887 1.57 3.426 3.673 4.467 6.126a15.46 15.46 0 0 1-4.518.82v-6.95l.05.004zm1.667.17a13.47 13.47 0 0 1 7.164 3.614 15.297 15.297 0 0 1-3.426 1.998c-.91-2.157-2.187-4.064-3.736-5.612zM15 2.025v6.95a15.492 15.492 0 0 1-4.518-.82c1.04-2.454 2.58-4.557 4.466-6.127.018 0 .034-.002.052-.003zM9.546 7.81A15.335 15.335 0 0 1 6.12 5.814 13.46 13.46 0 0 1 13.282 2.2c-1.55 1.546-2.826 3.453-3.737 5.61zm.56 1.266a16.43 16.43 0 0 0 4.894.9V15H9.02c.055-2.094.426-4.095 1.085-5.924zM15 16v6.025a16.41 16.41 0 0 0-4.54.77A18.785 18.785 0 0 1 9.02 16H15zm-1.717 12.802a13.43 13.43 0 0 1-6.545-3.052 15.2 15.2 0 0 1 3.188-1.7 17.317 17.317 0 0 0 3.357 4.752zm2.717.173v-5.95c1.432.047 2.82.27 4.13.68-1.022 2.087-2.415 3.884-4.077 5.268-.017 0-.035 0-.053.002zm5.074-4.925a15.32 15.32 0 0 1 3.188 1.7 13.44 13.44 0 0 1-6.545 3.052 17.338 17.338 0 0 0 3.357-4.752zm-.535-1.256a16.424 16.424 0 0 0-4.54-.77V16h5.98a18.806 18.806 0 0 1-1.44 6.794zM16 15V9.975a16.44 16.44 0 0 0 4.895-.898c.658 1.83 1.03 3.83 1.084 5.924H16zM5.434 6.535A16.35 16.35 0 0 0 9.17 8.732C8.47 10.67 8.075 12.785 8.02 15H2.026a13.43 13.43 0 0 1 3.41-8.465zM2.024 16H8.02a19.724 19.724 0 0 0 1.505 7.137 16.23 16.23 0 0 0-3.538 1.93A13.463 13.463 0 0 1 2.027 16zm22.99 9.067a16.256 16.256 0 0 0-3.54-1.93A19.725 19.725 0 0 0 22.98 16h5.994a13.464 13.464 0 0 1-3.96 9.066z"></path></symbol></svg>